<svg width="35" height="50" viewBox="0 0 35 50" fill="none" xmlns="http://www.w3.org/2000/svg">
<path d="M14.1613 21.0204C14.2544 27.1636 19.357 32.1398 25.5266 31.9951C28.5368 31.9251 31.5238 30.422 33.6067 28.0879V36.8406H2.30664V31.9998C4.70179 31.9998 7.09229 31.9998 9.48278 31.9998H18.9236C19.0681 31.9998 19.2125 31.9998 19.357 31.9951C19.534 31.9858 19.6459 31.8971 19.6645 31.7057C19.6971 31.3042 19.6832 30.9588 19.2498 30.7114C18.1175 30.0625 17.1529 29.1989 16.3188 28.2C16.1184 27.9572 15.8807 27.9105 15.5918 27.9105C13.5648 27.9152 11.5424 27.9105 9.52006 27.9105C9.41288 27.9105 9.31037 27.9152 9.20785 27.9105C9.10534 27.9012 8.9702 27.9479 8.91894 27.8452C8.8537 27.7285 8.9935 27.6678 9.05408 27.5931C9.13329 27.5044 9.21717 27.4251 9.29639 27.3364C10.713 25.8192 12.1296 24.2974 13.5462 22.7756C13.6999 22.6123 13.7745 22.4442 13.7465 22.2155C13.658 21.4592 13.6673 20.6983 13.7093 19.9421C13.7931 18.4016 14.2312 16.9592 14.9348 15.5914C15.9646 13.5888 17.4558 12.0157 19.4082 10.886C19.6645 10.7319 19.7717 10.5452 19.7344 10.2465C19.3197 7.09549 17.6282 4.88282 14.7065 3.72513C12.0131 2.6608 9.23115 2.67014 6.50981 3.67378C4.64122 4.36466 3.23861 5.56903 2.30664 7.23554V1.11099H33.6067V13.4114C31.5285 11.0867 28.4809 9.6116 25.0466 9.68629C19.0401 9.81699 14.0681 14.7885 14.1613 21.0204Z" fill="#004F9F"/>
<path d="M14.6971 13.4768C13.7745 15.5074 12.4511 17.2766 11.0298 18.9711C8.22929 22.3135 5.2237 25.4645 2.30664 28.6948V13.4581C3.20133 13.4535 4.10534 13.4535 5.00468 13.4628C5.36349 13.4675 5.48931 13.3134 5.47533 12.968C5.45669 12.3658 5.47067 11.7636 5.56386 11.1661C5.80151 9.5836 6.51447 8.2812 8.00096 7.59966C9.65986 6.84342 11.37 6.92745 12.9963 7.7537C14.138 8.33255 14.8369 9.29884 15.1025 10.5732C15.3122 11.5955 15.1119 12.5525 14.6971 13.4768Z" fill="#004F9F"/>
<path d="M19.6645 31.701C19.6459 31.8924 19.534 31.9811 19.357 31.9905C19.2125 31.9951 19.0681 31.9951 18.9236 31.9951H9.48278C7.09229 31.9951 4.70179 31.9951 2.30664 31.9951V28.6901C5.2237 25.4598 8.22929 22.3088 11.0298 18.9665C12.4511 17.272 13.7745 15.5027 14.6971 13.4721C15.1119 12.5478 15.3122 11.5909 15.1025 10.5686C14.8369 9.29417 14.138 8.32787 12.9963 7.74903C11.37 6.92278 9.65986 6.83875 8.00096 7.59498C6.51447 8.27653 5.80151 9.57892 5.56386 11.1614C5.47067 11.7589 5.45669 12.3611 5.47533 12.9633C5.48931 13.3087 5.36349 13.4628 5.00468 13.4581C4.10534 13.4488 3.20133 13.4488 2.30664 13.4534V7.2262C3.23861 5.55969 4.64122 4.35532 6.50981 3.66444C9.23115 2.6608 12.0131 2.65147 14.7065 3.71579C17.6282 4.87348 19.3197 7.08616 19.7344 10.2371C19.7717 10.5359 19.6645 10.7226 19.4082 10.8767C17.4558 12.0063 15.9646 13.5795 14.9348 15.5821C14.2312 16.9499 13.7931 18.3923 13.7093 19.9328C13.6673 20.689 13.658 21.4499 13.7465 22.2061C13.7745 22.4349 13.6999 22.6029 13.5462 22.7663C12.1296 24.2881 10.713 25.8099 9.29639 27.327C9.21717 27.4157 9.1333 27.4951 9.05408 27.5838C8.9935 27.6585 8.8537 27.7192 8.91894 27.8359C8.9702 27.9386 9.10534 27.8919 9.20785 27.9012C9.31037 27.9059 9.41289 27.9012 9.52006 27.9012C11.5424 27.9012 13.5648 27.9059 15.5918 27.9012C15.8807 27.9012 16.1184 27.9479 16.3188 28.1906C17.1529 29.1896 18.1175 30.0532 19.2498 30.7021C19.6832 30.9495 19.6971 31.2949 19.6645 31.6964V31.701Z" fill="white"/>
<path d="M25.0466 9.6863C19.0401 9.81701 14.0681 14.7885 14.1613 21.0204C14.2545 27.1637 19.357 32.1399 25.5266 31.9951C28.5368 31.9251 31.5238 30.422 33.6067 28.0879V13.4114C31.5285 11.0867 28.4809 9.61161 25.0466 9.6863ZM25.3122 27.9759C21.4026 27.9806 18.2013 24.7643 18.1874 20.815C18.178 16.9499 21.412 13.7102 25.2889 13.7055C29.2218 13.7055 32.4231 16.9079 32.4231 20.8477C32.4231 24.7876 29.2218 27.9712 25.3122 27.9759Z" fill="white"/>
<path d="M32.4231 20.8477C32.4231 24.7596 29.2218 27.9712 25.3122 27.9759C21.4026 27.9806 18.2013 24.7643 18.1873 20.815C18.178 16.9499 21.4119 13.7102 25.2889 13.7055C29.2218 13.7055 32.4231 16.9079 32.4231 20.8477Z" fill="#004F9F"/>
<path d="M8.84907 39.1046H4.88355L3.33649 47.8433H4.16128L4.82297 44.1369H7.9637C9.63192 44.1369 10.932 43.0865 11.193 41.6161C11.4539 40.155 10.5313 39.1046 8.84907 39.1046ZM10.3682 41.6161C10.1911 42.6524 9.28243 43.4133 8.07554 43.4133H4.93481L5.56855 39.8282H8.70927C9.91617 39.8282 10.5546 40.5798 10.3682 41.6161Z" fill="#004F9F" stroke="#004F9F" stroke-width="2" stroke-miterlimit="10"/>
<path d="M13.4623 43.2359L13.7372 41.6861H12.9544L11.8687 47.8433H12.6515L13.1501 45.0238C13.425 43.4647 14.6972 42.3536 16.2023 42.3536L16.3281 41.6068C15.1958 41.6068 14.1473 42.2323 13.4623 43.2406V43.2359Z" fill="#004F9F" stroke="#004F9F" stroke-width="2" stroke-miterlimit="10"/>
<path d="M18.7233 38.8432C18.3971 38.8432 18.1128 39.0813 18.0616 39.4034C18.001 39.7302 18.1967 39.9636 18.5229 39.9636C18.8491 39.9636 19.1193 39.7255 19.1846 39.4034C19.2498 39.0813 19.0494 38.8432 18.7233 38.8432Z" fill="#004F9F" stroke="#004F9F" stroke-width="2" stroke-miterlimit="10"/>
<path d="M16.7382 47.8433H17.5257L18.6068 41.6908H17.8239L16.7382 47.8433Z" fill="#004F9F" stroke="#004F9F" stroke-width="2" stroke-miterlimit="10"/>
<path d="M24.1054 41.6021C23.0196 41.6021 22.0504 42.1016 21.4027 42.8998L21.617 41.6908H20.8342L19.7484 47.848H20.5313L21.1044 44.5897C21.3421 43.2686 22.4371 42.3163 23.7605 42.3163C24.8696 42.3163 25.4427 42.9885 25.2563 44.0668L24.5946 47.848H25.3822L26.0671 43.9268C26.3141 42.489 25.5546 41.6067 24.11 41.6067L24.1054 41.6021Z" fill="#004F9F" stroke="#004F9F" stroke-width="2" stroke-miterlimit="10"/>
<path d="M29.59 42.349H31.398L31.5098 41.6861H29.7018L30.028 39.8609L29.1799 40.1736L28.9189 41.6861H27.7959L27.6841 42.349H28.7931L28.1081 46.2468C27.9357 47.2691 28.4343 47.918 29.4269 47.918C29.8649 47.918 30.2517 47.806 30.4613 47.6706L30.5732 47.0451C30.4241 47.1571 30.0979 47.2458 29.7996 47.2458C29.1286 47.2458 28.7885 46.821 28.9143 46.1348L29.59 42.3536V42.349Z" fill="#004F9F" stroke="#004F9F" stroke-width="2" stroke-miterlimit="10"/>
</svg>
