
<svg xmlns="http://www.w3.org/2000/svg" version="1.1" viewBox="0 0 75.11 107.11">
  <defs>
    <style>
      .cls-1 {
        fill: #fff;
      }

      .cls-2, .cls-3 {
        fill: #004f9f;
      }

      .cls-3 {
        stroke: #004f9f;
        stroke-miterlimit: 10;
        stroke-width: 2px;
      }
    </style>
  </defs>

  <g>
    <g id="Calque_1">
      <g>
        <path class="cls-2" d="M30.39,45.03c.2,13.16,11.15,23.82,24.39,23.51,6.46-.15,12.87-3.37,17.34-8.37v18.75H4.95v-10.37c5.14,0,10.27,0,15.4,0h20.26c.31,0,.62,0,.93-.01.38-.02.62-.21.66-.62.07-.86.04-1.6-.89-2.13-2.43-1.39-4.5-3.24-6.29-5.38-.43-.52-.94-.62-1.56-.62-4.35.01-8.69,0-13.03,0-.23,0-.45.01-.67,0-.22-.02-.51.08-.62-.14-.14-.25.16-.38.29-.54.17-.19.35-.36.52-.55,3.04-3.25,6.08-6.51,9.12-9.77.33-.35.49-.71.43-1.2-.19-1.62-.17-3.25-.08-4.87.18-3.3,1.12-6.39,2.63-9.32,2.21-4.29,5.41-7.66,9.6-10.08.55-.33.78-.73.7-1.37-.89-6.75-4.52-11.49-10.79-13.97-5.78-2.28-11.75-2.26-17.59-.11-4.01,1.48-7.02,4.06-9.02,7.63V2.38h67.17v26.35c-4.46-4.98-11-8.14-18.37-7.98-12.89.28-23.56,10.93-23.36,24.28Z"/>
        <path class="cls-2" d="M31.54,28.87c-1.98,4.35-4.82,8.14-7.87,11.77-6.01,7.16-12.46,13.91-18.72,20.83V28.83c1.92-.01,3.86-.01,5.79.01.77.01,1.04-.32,1.01-1.06-.04-1.29-.01-2.58.19-3.86.51-3.39,2.04-6.18,5.23-7.64,3.56-1.62,7.23-1.44,10.72.33,2.45,1.24,3.95,3.31,4.52,6.04.45,2.19.02,4.24-.87,6.22Z"/>
        <path class="cls-1" d="M42.2,67.91c-.04.41-.28.6-.66.62-.31.01-.62.01-.93.01h-20.26c-5.13,0-10.26,0-15.4,0v-7.08c6.26-6.92,12.71-13.67,18.72-20.83,3.05-3.63,5.89-7.42,7.87-11.77.89-1.98,1.32-4.03.87-6.22-.57-2.73-2.07-4.8-4.52-6.04-3.49-1.77-7.16-1.95-10.72-.33-3.19,1.46-4.72,4.25-5.23,7.64-.2,1.28-.23,2.57-.19,3.86.03.74-.24,1.07-1.01,1.06-1.93-.02-3.87-.02-5.79-.01v-13.34c2-3.57,5.01-6.15,9.02-7.63,5.84-2.15,11.81-2.17,17.59.11,6.27,2.48,9.9,7.22,10.79,13.97.08.64-.15,1.04-.7,1.37-4.19,2.42-7.39,5.79-9.6,10.08-1.51,2.93-2.45,6.02-2.63,9.32-.09,1.62-.11,3.25.08,4.87.06.49-.1.85-.43,1.2-3.04,3.26-6.08,6.52-9.12,9.77-.17.19-.35.36-.52.55-.13.16-.43.29-.29.54.11.22.4.12.62.14.22.01.44,0,.67,0,4.34,0,8.68.01,13.03,0,.62,0,1.13.1,1.56.62,1.79,2.14,3.86,3.99,6.29,5.38.93.53.96,1.27.89,2.13Z"/>
        <path class="cls-1" d="M53.75,20.75c-12.89.28-23.56,10.93-23.36,24.28.2,13.16,11.15,23.82,24.39,23.51,6.46-.15,12.87-3.37,17.34-8.37v-31.44c-4.46-4.98-11-8.14-18.37-7.98ZM54.32,59.93c-8.39.01-15.26-6.88-15.29-15.34-.02-8.28,6.92-15.22,15.24-15.23,8.44,0,15.31,6.86,15.31,15.3s-6.87,15.26-15.26,15.27Z"/>
        <path class="cls-2" d="M69.58,44.66c0,8.38-6.87,15.26-15.26,15.27-8.39.01-15.26-6.88-15.29-15.34-.02-8.28,6.92-15.22,15.24-15.23,8.44,0,15.31,6.86,15.31,15.3Z"/>
      </g>
      <g>
        <path class="cls-3" d="M18.99,83.77h-8.51l-3.32,18.72h1.77l1.42-7.94h6.74c3.58,0,6.37-2.25,6.93-5.4.56-3.13-1.42-5.38-5.03-5.38ZM22.25,89.15c-.38,2.22-2.33,3.85-4.92,3.85h-6.74l1.36-7.68h6.74c2.59,0,3.96,1.61,3.56,3.83Z"/>
        <path class="cls-3" d="M28.89,92.62l.59-3.32h-1.68l-2.33,13.19h1.68l1.07-6.04c.59-3.34,3.32-5.72,6.55-5.72l.27-1.6c-2.43,0-4.68,1.34-6.15,3.5Z"/>
        <path class="cls-3" d="M40.18,83.21c-.7,0-1.31.51-1.42,1.2-.13.7.29,1.2.99,1.2s1.28-.51,1.42-1.2-.29-1.2-.99-1.2Z"/>
        <polygon class="cls-3" points="35.92 102.49 37.61 102.49 39.93 89.31 38.25 89.31 35.92 102.49"/>
        <path class="cls-3" d="M51.73,89.12c-2.33,0-4.41,1.07-5.8,2.78l.46-2.59h-1.68l-2.33,13.19h1.68l1.23-6.98c.51-2.83,2.86-4.87,5.7-4.87,2.38,0,3.61,1.44,3.21,3.75l-1.42,8.1h1.69l1.47-8.4c.53-3.08-1.1-4.97-4.2-4.97Z"/>
        <path class="cls-3" d="M63.5,90.72h3.88l.24-1.42h-3.88l.7-3.91-1.82.67-.56,3.24h-2.41l-.24,1.42h2.38l-1.47,8.35c-.37,2.19.7,3.58,2.83,3.58.94,0,1.77-.24,2.22-.53l.24-1.34c-.32.24-1.02.43-1.66.43-1.44,0-2.17-.91-1.9-2.38l1.45-8.1Z"/>
      </g>
    </g>
  </g>
</svg>